<svg width="16" height="16" viewBox="0 0 16 16" fill="none" xmlns="http://www.w3.org/2000/svg">
<path fill-rule="evenodd" clip-rule="evenodd" d="M8 2C7.28013 2 6.58975 2.27932 6.08072 2.77651C5.5717 3.2737 5.28573 3.94803 5.28573 4.65116C5.28573 5.3543 5.5717 6.02863 6.08072 6.52582C6.58975 7.02301 7.28013 7.30233 8 7.30233C8.71987 7.30233 9.41025 7.02301 9.91928 6.52582C10.4283 6.02863 10.7143 5.3543 10.7143 4.65116C10.7143 3.94803 10.4283 3.2737 9.91928 2.77651C9.41025 2.27932 8.71987 2 8 2ZM6.14287 4.65116C6.14287 4.17007 6.33853 3.70869 6.68681 3.3685C7.03509 3.02832 7.50746 2.83721 8 2.83721C8.49254 2.83721 8.96491 3.02832 9.31319 3.3685C9.66147 3.70869 9.85713 4.17007 9.85713 4.65116C9.85713 5.13225 9.66147 5.59364 9.31319 5.93382C8.96491 6.274 8.49254 6.46512 8 6.46512C7.50746 6.46512 7.03509 6.274 6.68681 5.93382C6.33853 5.59364 6.14287 5.13225 6.14287 4.65116ZM8 8.13953C6.67829 8.13953 5.46002 8.43312 4.55774 8.92874C3.6686 9.41767 3.00003 10.1578 3.00003 11.0698V11.1267C2.99946 11.7753 2.99889 12.589 3.72974 13.1706C4.08917 13.4564 4.59259 13.6601 5.27259 13.794C5.95373 13.9291 6.84229 14 8 14C9.15771 14 10.0457 13.9291 10.728 13.794C11.408 13.6601 11.9108 13.4564 12.2708 13.1706C13.0017 12.589 13.0005 11.7753 13 11.1267V11.0698C13 10.1578 12.3314 9.41767 11.4428 8.92874C10.54 8.43312 9.32228 8.13953 8 8.13953ZM3.85717 11.0698C3.85717 10.5948 4.2126 10.0791 4.97773 9.65879C5.72973 9.24577 6.79715 8.97674 8.00057 8.97674C9.20285 8.97674 10.2703 9.24577 11.0223 9.65879C11.788 10.0791 12.1428 10.5948 12.1428 11.0698C12.1428 11.7998 12.12 12.2106 11.7291 12.5209C11.5177 12.6895 11.1634 12.8541 10.5577 12.9736C9.9537 13.093 9.12799 13.1628 8 13.1628C6.87201 13.1628 6.04573 13.093 5.4423 12.9736C4.83659 12.8541 4.48231 12.6895 4.27088 12.5215C3.88003 12.2106 3.85717 11.7998 3.85717 11.0698Z" fill="#704332"/>
</svg>
