<svg width="38" height="38" viewBox="0 0 38 38" fill="none" xmlns="http://www.w3.org/2000/svg">
<path d="M17.4167 26.9167H20.5834V17.4167H17.4167V26.9167ZM19.0001 14.25C19.4487 14.25 19.825 14.098 20.129 13.794C20.433 13.49 20.5845 13.1142 20.5834 12.6667C20.5824 12.2191 20.4304 11.8433 20.1274 11.5393C19.8245 11.2353 19.4487 11.0833 19.0001 11.0833C18.5515 11.0833 18.1757 11.2353 17.8727 11.5393C17.5698 11.8433 17.4178 12.2191 17.4167 12.6667C17.4157 13.1142 17.5677 13.4905 17.8727 13.7956C18.1778 14.1006 18.5536 14.2521 19.0001 14.25ZM19.0001 34.8333C16.8098 34.8333 14.7515 34.4174 12.8251 33.5857C10.8987 32.7539 9.223 31.626 7.798 30.2021C6.373 28.7781 5.24514 27.1024 4.41442 25.175C3.58369 23.2476 3.16781 21.1892 3.16675 19C3.16569 16.8108 3.58158 14.7524 4.41442 12.825C5.24725 10.8976 6.37511 9.22186 7.798 7.79792C9.22089 6.37397 10.8966 5.24611 12.8251 4.41433C14.7536 3.58256 16.8119 3.16667 19.0001 3.16667C21.1882 3.16667 23.2466 3.58256 25.1751 4.41433C27.1036 5.24611 28.7793 6.37397 30.2022 7.79792C31.6251 9.22186 32.7534 10.8976 33.5873 12.825C34.4212 14.7524 34.8366 16.8108 34.8334 19C34.8302 21.1892 34.4144 23.2476 33.5857 25.175C32.7571 27.1024 31.6293 28.7781 30.2022 30.2021C28.7751 31.626 27.0994 32.7544 25.1751 33.5873C23.2508 34.4201 21.1925 34.8354 19.0001 34.8333Z" fill="white"/>
</svg>
