<svg width="16" height="16" viewBox="0 0 16 16" fill="none" xmlns="http://www.w3.org/2000/svg">
<path d="M2.47333 3.6H12.616C13.5347 3.6 14.198 4.44667 13.946 5.29867L12.8433 9.032C12.6733 9.60533 12.1307 10 11.5133 10H5.408C4.79 10 4.24667 9.60467 4.07733 9.032L2.47333 3.6ZM2.47333 3.6L2 2M11 14C11.2652 14 11.5196 13.8946 11.7071 13.7071C11.8946 13.5196 12 13.2652 12 13C12 12.7348 11.8946 12.4804 11.7071 12.2929C11.5196 12.1054 11.2652 12 11 12C10.7348 12 10.4804 12.1054 10.2929 12.2929C10.1054 12.4804 10 12.7348 10 13C10 13.2652 10.1054 13.5196 10.2929 13.7071C10.4804 13.8946 10.7348 14 11 14ZM5.66667 14C5.93188 14 6.18624 13.8946 6.37377 13.7071C6.56131 13.5196 6.66667 13.2652 6.66667 13C6.66667 12.7348 6.56131 12.4804 6.37377 12.2929C6.18624 12.1054 5.93188 12 5.66667 12C5.40145 12 5.1471 12.1054 4.95956 12.2929C4.77202 12.4804 4.66667 12.7348 4.66667 13C4.66667 13.2652 4.77202 13.5196 4.95956 13.7071C5.1471 13.8946 5.40145 14 5.66667 14Z" stroke="#50311A" stroke-linecap="round" stroke-linejoin="round"/>
</svg>
