<svg width="16" height="16" viewBox="0 0 16 16" fill="none" xmlns="http://www.w3.org/2000/svg">
<path d="M3.33325 3.33331H11.9999C12.5304 3.33331 13.0391 3.54403 13.4141 3.9191C13.7892 4.29417 13.9999 4.80288 13.9999 5.33331V11.3333C13.9999 11.8637 13.7892 12.3725 13.4141 12.7475C13.0391 13.1226 12.5304 13.3333 11.9999 13.3333H3.33325C2.80282 13.3333 2.29411 13.1226 1.91904 12.7475C1.54397 12.3725 1.33325 11.8637 1.33325 11.3333V5.33331C1.33325 4.80288 1.54397 4.29417 1.91904 3.9191C2.29411 3.54403 2.80282 3.33331 3.33325 3.33331ZM3.33325 3.99998C2.99992 3.99998 2.70659 4.11331 2.47992 4.31331L7.66659 7.66665L12.8533 4.31331C12.6266 4.11331 12.3333 3.99998 11.9999 3.99998H3.33325ZM7.66659 8.47331L2.08659 4.85331C2.03325 4.99998 1.99992 5.16665 1.99992 5.33331V11.3333C1.99992 11.6869 2.14039 12.0261 2.39044 12.2761C2.64049 12.5262 2.97963 12.6666 3.33325 12.6666H11.9999C12.3535 12.6666 12.6927 12.5262 12.9427 12.2761C13.1928 12.0261 13.3333 11.6869 13.3333 11.3333V5.33331C13.3333 5.16665 13.2999 4.99998 13.2466 4.85331L7.66659 8.47331Z" fill="#704332"/>
</svg>
