<svg width="18" height="14" viewBox="0 0 18 14" fill="none" xmlns="http://www.w3.org/2000/svg">
<path fill-rule="evenodd" clip-rule="evenodd" d="M0.9 0H17.1C17.3387 0 17.5676 0.0921874 17.7364 0.256282C17.9052 0.420376 18 0.642936 18 0.875V13.125C18 13.3571 17.9052 13.5796 17.7364 13.7437C17.5676 13.9078 17.3387 14 17.1 14H0.9C0.661305 14 0.432387 13.9078 0.263604 13.7437C0.0948211 13.5796 0 13.3571 0 13.125V0.875C0 0.642936 0.0948211 0.420376 0.263604 0.256282C0.432387 0.0921874 0.661305 0 0.9 0ZM15.3279 1.67475L9.1404 6.48725C9.10053 6.5182 9.05102 6.53506 9 6.53506C8.94898 6.53506 8.89947 6.5182 8.8596 6.48725L2.6721 1.67475L1.8279 2.70025L8.0163 7.51275C8.29554 7.72986 8.64245 7.84814 9 7.84814C9.35755 7.84814 9.70446 7.72986 9.9837 7.51275L16.1721 2.70025L15.3279 1.67475Z" fill="black" fill-opacity="0.53"/>
</svg>
