<svg width="20" height="18" viewBox="0 0 20 18" fill="none" xmlns="http://www.w3.org/2000/svg">
<path d="M10 17.675C9.76667 17.675 9.52933 17.6333 9.288 17.55C9.04667 17.4667 8.834 17.3333 8.65 17.15L6.925 15.575C5.15833 13.9583 3.56233 12.3543 2.137 10.763C0.711667 9.17167 -0.000666199 7.41733 4.67508e-07 5.5C4.67508e-07 3.93333 0.525001 2.625 1.575 1.575C2.625 0.525 3.93333 0 5.5 0C6.38333 0 7.21667 0.187333 8 0.562C8.78333 0.936666 9.45 1.44933 10 2.1C10.55 1.45 11.2167 0.937667 12 0.563C12.7833 0.188333 13.6167 0.000666667 14.5 0C16.0667 0 17.375 0.525 18.425 1.575C19.475 2.625 20 3.93333 20 5.5C20 7.41667 19.2917 9.175 17.875 10.775C16.4583 12.375 14.85 13.9833 13.05 15.6L11.35 17.15C11.1667 17.3333 10.9543 17.4667 10.713 17.55C10.4717 17.6333 10.234 17.675 10 17.675Z" fill="#874F00"/>
</svg>
