<svg width="20" height="20" viewBox="0 0 20 20" fill="none" xmlns="http://www.w3.org/2000/svg">
<path d="M20 18.7302V7.93651C20 7.73937 19.9548 7.54494 19.868 7.36862C19.7812 7.19229 19.6552 7.03892 19.5 6.92063L10.75 0.253968C10.5336 0.0891145 10.2705 0 10 0C9.72954 0 9.46637 0.0891145 9.25 0.253968L0.5 6.92063C0.344755 7.03892 0.218751 7.19229 0.131966 7.36862C0.0451812 7.54494 0 7.73937 0 7.93651V18.7302C0 19.0669 0.131696 19.3899 0.366117 19.6281C0.600537 19.8662 0.918479 20 1.25 20H6.25C6.58152 20 6.89946 19.8662 7.13388 19.6281C7.3683 19.3899 7.5 19.0669 7.5 18.7302V14.9206C7.5 14.5839 7.6317 14.2609 7.86612 14.0227C8.10054 13.7846 8.41848 13.6508 8.75 13.6508H11.25C11.5815 13.6508 11.8995 13.7846 12.1339 14.0227C12.3683 14.2609 12.5 14.5839 12.5 14.9206V18.7302C12.5 19.0669 12.6317 19.3899 12.8661 19.6281C13.1005 19.8662 13.4185 20 13.75 20H18.75C19.0815 20 19.3995 19.8662 19.6339 19.6281C19.8683 19.3899 20 19.0669 20 18.7302Z" fill="#874F00"/>
</svg>
