<svg width="16" height="12" viewBox="0 0 16 12" fill="none" xmlns="http://www.w3.org/2000/svg">
<path d="M2.18325 8.19735C1.61659 7.46135 1.33325 7.09269 1.33325 6.00002C1.33325 4.90669 1.61659 4.53935 2.18325 3.80269C3.31459 2.33335 5.21192 0.666687 7.99992 0.666687C10.7879 0.666687 12.6853 2.33335 13.8166 3.80269C14.3833 4.54002 14.6666 4.90735 14.6666 6.00002C14.6666 7.09335 14.3833 7.46069 13.8166 8.19735C12.6853 9.66669 10.7879 11.3334 7.99992 11.3334C5.21192 11.3334 3.31459 9.66669 2.18325 8.19735Z" stroke="#704332"/>
<path d="M10 6C10 6.53043 9.78929 7.03914 9.41421 7.41421C9.03914 7.78929 8.53043 8 8 8C7.46957 8 6.96086 7.78929 6.58579 7.41421C6.21071 7.03914 6 6.53043 6 6C6 5.46957 6.21071 4.96086 6.58579 4.58579C6.96086 4.21071 7.46957 4 8 4C8.53043 4 9.03914 4.21071 9.41421 4.58579C9.78929 4.96086 10 5.46957 10 6Z" stroke="#704332"/>
</svg>
