<svg width="14" height="15" viewBox="0 0 14 15" fill="none" xmlns="http://www.w3.org/2000/svg">
<path d="M12.9403 9.0541L11.6493 7.77939V6.09075C11.6478 4.9238 11.2081 3.79883 10.4153 2.93339C9.62248 2.06794 8.5328 1.5235 7.35698 1.40534V0.440002H6.40313V1.40534C5.22731 1.5235 4.13763 2.06794 3.3448 2.93339C2.55197 3.79883 2.1123 4.9238 2.11082 6.09075V7.77939L0.819792 9.0541C0.730346 9.14239 0.680081 9.26215 0.680054 9.38703V10.7997C0.680054 10.9246 0.730301 11.0444 0.819741 11.1327C0.909182 11.221 1.03049 11.2706 1.15698 11.2706H4.49544V11.6365C4.48485 12.2339 4.69804 12.8142 5.0941 13.266C5.49017 13.7178 6.04123 14.0094 6.64159 14.0847C6.97314 14.1171 7.3079 14.0807 7.62433 13.9778C7.94077 13.8748 8.23189 13.7076 8.47895 13.4869C8.72601 13.2662 8.92356 12.9969 9.05888 12.6963C9.1942 12.3957 9.2643 12.0705 9.26467 11.7415V11.2706H12.6031C12.7296 11.2706 12.8509 11.221 12.9404 11.1327C13.0298 11.0444 13.0801 10.9246 13.0801 10.7997V9.38703C13.08 9.26215 13.0298 9.14239 12.9403 9.0541ZM8.31082 11.7415C8.31082 12.1162 8.16008 12.4755 7.89176 12.7404C7.62344 13.0054 7.25952 13.1542 6.88005 13.1542C6.50059 13.1542 6.13667 13.0054 5.86835 12.7404C5.60003 12.4755 5.44928 12.1162 5.44928 11.7415V11.2706H8.31082V11.7415ZM12.1262 10.3288H1.6339V9.58198L2.92493 8.30726C3.01438 8.21897 3.06464 8.09922 3.06467 7.97434V6.09075C3.06467 5.09164 3.46665 4.13345 4.18217 3.42696C4.89769 2.72048 5.86815 2.32359 6.88005 2.32359C7.89196 2.32359 8.86242 2.72048 9.57794 3.42696C10.2935 4.13345 10.6954 5.09164 10.6954 6.09075V7.97434C10.6955 8.09922 10.7457 8.21897 10.8352 8.30726L12.1262 9.58198V10.3288Z" fill="#704332"/>
</svg>
